<svg version="1.1" id="b234513d-0f22-4529-9071-6c8a40ad7de0" xmlns="http://www.w3.org/2000/svg" xmlns:xlink="http://www.w3.org/1999/xlink" x="0px" y="0px" viewBox="0 0 300 300" style="enable-background:new 0 0 300 300;" xml:space="preserve">
                            <style type="text/css">
                                .st0 {
                                    fill: #22B8D1;
                                }

                                .st1 {
                                    fill: #E4F5FA;
                                }

                                .st2 {
                                    fill: #FFFFFF;
                                }

                                .st3 {
                                    fill: #256E7A;
                                }
                            </style>
                            <title>404_graphic</title>
                            <polygon class="st0" points="64.9,146.1 17.8,100.8 63.6,119.3 147,130.9 221.7,119.3 277.9,100.8 226,146.1 147,167.5 "></polygon>
                            <polygon class="st1" points="115.4,25.9 129.4,30.6 147,32.4 163.8,31.1 177.5,27.2 187.2,22 163.8,15.2 147,13 130.6,15.2 
                            112.4,22 "></polygon>
                            <polygon class="st1" points="93.4,48 29.9,63.4 10,82.2 17.8,100.8 63.6,119.3 147,130.9 221.7,119.3 277.9,100.8 290,82.2 
                            264.5,63.4 213.5,48 211.4,64.9 181.5,73.9 147,78.9 115.4,73.9 92.1,64.9 "></polygon>
                            <polygon class="st2" points="147,13 130.6,15.2 112.4,22 93.4,48 92.1,64.9 115.4,73.9 147,78.9 181.5,73.9 211.4,64.9 213.5,48 
                            187.2,22 163.8,15.6 "></polygon>
                            <path class="st3" d="M290.9,82.5c0-0.1,0.1-0.2,0-0.4c0-0.1,0-0.1,0-0.2s0-0.1-0.1-0.2c0-0.1-0.1-0.1-0.1-0.2s-0.1-0.1-0.1-0.1
                            s0,0-0.1-0.1L265,62.4c-0.1-0.1-0.2-0.1-0.3-0.2L214,47.1l-26.1-25.8c0,0-0.1,0-0.1-0.1c0,0-0.1,0-0.1-0.1c-0.1,0-0.1-0.1-0.2-0.1
                            l0,0l-23.4-6.9c-0.1,0-0.1,0-0.2,0L147.1,12c-0.1,0-0.2,0-0.3,0l-16.4,2.2c-0.1,0-0.2,0-0.2,0.1L112,21.1c-0.1,0.1-0.2,0.1-0.3,0.2
                            c0,0,0,0-0.1,0.1s0,0-0.1,0.1L92.8,47.1L29.6,62.4c-0.2,0-0.3,0.1-0.5,0.2L9.3,81.5l0,0c0,0,0,0,0,0.1c-0.1,0.1-0.1,0.1-0.2,0.2v0.1
                            c0,0.1,0,0.2,0,0.2v0.1c0,0.1,0,0.2,0.1,0.3l0,0l0,0l0,0l7.8,18.6l0,0c0,0.1,0.1,0.2,0.2,0.3c0,0,0,0,0,0.1l0,0l46.5,44.7
                            l-29.8,50.9c-0.3,0.5-0.1,1.1,0.4,1.4c0.4,0.2,0.8,0.2,1.2-0.1l52.4-45.1c0.1-0.1,0.1-0.1,0.2-0.2l21,5.5L69.7,285.7
                            c-0.2,0.5,0.1,1.1,0.7,1.2l0,0c0.1,0,0.2,0,0.3,0c0.4,0,0.8-0.3,1-0.7l39.1-127.3l36,9.4c0.1,0,0.2,0,0.3,0s0.2,0,0.3,0l31-8.4
                            L220,287.3c0.2,0.5,0.7,0.8,1.3,0.6c0.5-0.2,0.8-0.7,0.6-1.3l-41.7-127.1l23.2-6.3l0,0l51.4,43.4c0.4,0.4,1.1,0.3,1.4-0.1
                            c0.3-0.3,0.3-0.8,0.1-1.1l-29.2-49l51.4-44.9l0,0l0.1-0.1c0,0,0,0,0-0.1l12.1-18.6c0,0,0,0,0-0.1C290.7,82.6,290.7,82.5,290.9,82.5
                            C290.9,82.6,290.9,82.6,290.9,82.5z M148,166.2v-34.4l72.9-11.3l4,24.9L148,166.2z M66.3,145.4l-1.6-24.9l81.3,11.3v34.4L66.3,145.4
                            z M112.4,23.7l1.9,2.4L93.4,60.7l1-12.4L112.4,23.7z M128.1,31.3l-14.1,41l-20.5-7.9L116,27.2L128.1,31.3z M163.2,32.1l16.9,41
                            L148,77.7V33.3L163.2,32.1z M187,23.3l25.5,25.1l-1.8,14.2l-31.6-35.1L187,23.3z M115.1,74.8c0.1,0,0.1,0,0.2,0.1l30.7,4.8v50.1
                            l-80.1-11.2L115.1,74.8L115.1,74.8z M148,79.7l33.2-4.8l38.6,43.6L148,129.8V79.7z M92.1,66l20.8,8.1l-49.6,44.1l-42.8-17.4L92.1,66
                            z M222,118.2l-38.7-43.7l27.9-8.5l64.1,34.6L222,118.2z M177.2,28.3l32.4,36l-27.4,8.3l-16.9-41L177.2,28.3z M146,77.7L116,73
                            l14.1-41.3l15.9,1.6V77.7z M91.1,64.2L18.4,99.6l-7.1-16.8l81-33.3L91.1,64.2z M62.6,120l1.5,24l-42-40.3L62.6,120z M277.6,99.5
                            l-65.1-35.2l1.9-14.9l74.2,33.2L277.6,99.5z M282,77.6l-53.8-24.1L264,64.3L282,77.6z M147,14l16.6,2.6l20.9,5.8l-7.4,3.9L163.8,30
                            c-0.1,0-0.2,0-0.3,0.1l-16.4,1.3H147h-0.1l-17.3-1.7l-13.3-4.5l-0.1-0.1c-0.1,0-0.1-0.1-0.2-0.1l-1.9-2.5l16.8-6.4L147,14z
                             M30.4,64.3l50.3-12.2L14.6,79.3L30.4,64.3z M38.5,193l26.8-45.7l20.2,5.3L38.5,193z M205.7,152.6l19.6-5.3l26.2,44L205.7,152.6z
                             M226.7,144.1l-3.9-24.1l50.7-16.7L226.7,144.1z"></path>
                            <path class="st3" d="M145.3,287.1c-0.6,0-1-0.4-1-1v-9c0-0.6,0.4-1,1-1s1,0.4,1,1v9C146.3,286.7,145.9,287.1,145.3,287.1z
                             M145.3,269.1c-0.6,0-1-0.4-1-1v-9c0-0.6,0.4-1,1-1s1,0.4,1,1v9C146.3,268.7,145.9,269.1,145.3,269.1z M145.3,251.1
                            c-0.6,0-1-0.4-1-1v-9c0-0.6,0.4-1,1-1s1,0.4,1,1v9C146.3,250.7,145.9,251.1,145.3,251.1z M145.3,233.1c-0.6,0-1-0.4-1-1v-9
                            c0-0.6,0.4-1,1-1s1,0.4,1,1v9C146.3,232.7,145.9,233.1,145.3,233.1z M145.3,215.1c-0.6,0-1-0.4-1-1v-9c0-0.6,0.4-1,1-1s1,0.4,1,1v9
                            C146.3,214.7,145.9,215.1,145.3,215.1z M145.3,197.1c-0.6,0-1-0.4-1-1v-9c0-0.6,0.4-1,1-1s1,0.4,1,1v9
                            C146.3,196.7,145.9,197.1,145.3,197.1z"></path>
                            <path class="st3" d="M173.3,250.6c-0.6,0-1-0.4-1-1s0.4-1,1-1c0.5,0,0.9,0.3,1,0.8l0,0c0.1,0.5-0.3,1.1-0.8,1.1
                            C173.4,250.6,173.4,250.6,173.3,250.6z M171.8,241.8c-0.5,0-0.9-0.3-1-0.8l-1.6-8.9c-0.1-0.5,0.3-1.1,0.8-1.2s1.1,0.3,1.2,0.8
                            l1.6,8.9c0.1,0.5-0.3,1.1-0.8,1.2l0,0C171.9,241.8,171.8,241.8,171.8,241.8z M168.7,224c-0.5,0-0.9-0.3-1-0.8l-1.6-8.9
                            c-0.1-0.5,0.3-1.1,0.8-1.2s1.1,0.3,1.2,0.8l1.6,8.9c0.1,0.5-0.3,1.1-0.8,1.2l0,0C168.8,224,168.7,224,168.7,224z M165.5,206.3
                            c-0.5,0-0.9-0.3-1-0.8l-1.6-8.9c-0.1-0.5,0.3-1.1,0.8-1.2c0.5-0.1,1.1,0.3,1.2,0.8l1.6,8.9c0.1,0.5-0.3,1.1-0.8,1.2l0,0
                            C165.7,206.3,165.6,206.3,165.5,206.3z"></path>
                            <path class="st3" d="M115.5,251.6c-0.1,0-0.1,0-0.2,0c-0.5-0.1-0.9-0.6-0.8-1.2l0,0l0.1-0.4c0.1-0.5,0.6-0.9,1.2-0.8
                            s0.9,0.6,0.8,1.2l-0.1,0.4C116.3,251.2,115.9,251.6,115.5,251.6z M117.4,242.4c-0.1,0-0.1,0-0.2,0c-0.5-0.1-0.9-0.6-0.8-1.2l0,0
                            l1.9-8.8c0.1-0.5,0.6-0.9,1.2-0.8s0.9,0.6,0.8,1.2l0,0l-1.9,8.8C118.3,242.1,117.9,242.4,117.4,242.4L117.4,242.4z M121.1,224.8
                            c-0.1,0-0.1,0-0.2,0c-0.5-0.1-0.9-0.6-0.8-1.2l0,0l1.9-8.8c0.1-0.5,0.6-0.9,1.2-0.8s0.9,0.6,0.8,1.2l-1.9,8.8
                            C122,224.5,121.6,224.8,121.1,224.8L121.1,224.8z M124.8,207.2c-0.1,0-0.1,0-0.2,0c-0.5-0.1-0.9-0.6-0.8-1.2l1.9-8.8
                            c0.1-0.5,0.7-0.9,1.2-0.8c0.5,0.1,0.9,0.6,0.8,1.2l-1.9,8.8C125.7,206.8,125.3,207.2,124.8,207.2L124.8,207.2z"></path>
                        </svg>